<?xml version="1.0" standalone="no"?>
<!DOCTYPE svg PUBLIC "-//W3C//DTD SVG 20010904//EN"
 "http://www.w3.org/TR/2001/REC-SVG-20010904/DTD/svg10.dtd">
<svg version="1.0" xmlns="http://www.w3.org/2000/svg"
 width="500.000000pt" height="500.000000pt" viewBox="0 0 500.000000 500.000000"
 preserveAspectRatio="xMidYMid meet">
<metadata>
Created by potrace 1.11, written by Peter Selinger 2001-2013
</metadata>
<g transform="translate(0.000000,500.000000) scale(0.100000,-0.100000)"
fill="#000000" stroke="none">
<path d="M0 2500 l0 -2500 2500 0 2500 0 0 2500 0 2500 -2500 0 -2500 0 0
-2500z m3788 250 c135 -14 215 -36 321 -88 123 -60 213 -148 271 -266 39 -79
69 -189 70 -252 l0 -32 -147 -7 c-82 -4 -179 -8 -217 -8 l-69 -2 -12 50 c-38
162 -142 240 -335 252 -165 10 -304 -28 -369 -102 -54 -62 -53 -149 1 -211 55
-62 150 -99 458 -178 328 -84 470 -147 579 -256 119 -119 171 -253 171 -441 0
-192 -64 -344 -197 -468 -150 -141 -344 -201 -653 -201 -376 0 -608 101 -756
330 -26 40 -59 105 -75 145 -29 76 -66 241 -56 251 8 8 406 48 413 42 2 -3 11
-31 19 -62 37 -141 123 -254 229 -301 85 -38 205 -51 318 -36 154 20 252 80
304 187 51 105 18 222 -80 279 -62 36 -125 57 -366 120 -116 30 -241 66 -278
79 -201 70 -328 164 -410 303 -104 176 -96 413 19 589 143 220 456 325 847
284z m-1523 -54 c197 -46 358 -195 421 -389 35 -107 44 -303 20 -416 -51 -241
-230 -422 -473 -477 -50 -12 -153 -18 -393 -23 l-325 -6 -3 -402 -2 -403 -215
0 -215 0 0 1071 0 1071 558 -5 c469 -4 568 -7 627 -21z"/>
<path d="M1515 2347 c-3 -7 -4 -143 -3 -302 l3 -290 190 -3 c299 -4 396 14
483 92 114 103 116 304 5 418 -75 77 -176 97 -501 98 -130 0 -174 -3 -177 -13z"/>
</g>
</svg>
